<?xml version="1.0" encoding="utf-8"?>
<!-- Generator: Adobe Illustrator 23.0.1, SVG Export Plug-In . SVG Version: 6.00 Build 0)  -->
<svg version="1.1" id="Layer_1" xmlns="http://www.w3.org/2000/svg" xmlns:xlink="http://www.w3.org/1999/xlink" x="0px" y="0px"
	 viewBox="0 0 496 496" style="enable-background:new 0 0 496 496;" xml:space="preserve">
<style type="text/css">
	.st0{fill:#AEA1EA;}
</style>
<path class="st0" d="M248,256c70.6,0,128-57.4,128-128S318.6,0,248,0S120,57.4,120,128S177.4,256,248,256z M248,16
	c61.8,0,112,50.2,112,112s-50.2,112-112,112s-112-50.2-112-112S186.2,16,248,16z"/>
<path class="st0" d="M328,128h16c0-52.9-43.1-96-96-96v16C292.1,48,328,83.9,328,128z"/>
<path class="st0" d="M248,224v-16c-44.1,0-80-35.9-80-80h-16C152,180.9,195.1,224,248,224z"/>
<path class="st0" d="M248,168c-8.8,0-16-7.2-16-16h-16c0,14.9,10.2,27.3,24,30.9V200h16v-17.1c13.8-3.6,24-16,24-30.9
	c0-17.6-14.4-32-32-32c-8.8,0-16-7.2-16-16s7.2-16,16-16s16,7.2,16,16h16c0-14.9-10.2-27.3-24-30.9V56h-16v17.1
	c-13.8,3.6-24,16-24,30.9c0,17.6,14.4,32,32,32c8.8,0,16,7.2,16,16S256.8,168,248,168z"/>
<path class="st0" d="M296,120h16v16h-16V120z"/>
<path class="st0" d="M184,120h16v16h-16V120z"/>
<path class="st0" d="M408,352h-30.7c-8.1-18.4-22.9-33.2-41.3-41.3V272c0-4.4-3.6-8-8-8c-22.1,0-40,17.9-40,40h-64
	c-41.4,0-75.6,31.6-79.6,72H128v-8c0-13.2-10.8-24-24-24s-24,10.8-24,24s10.8,24,24,24h8v32h16v-32h16.4
	c2.9,29.3,21.7,53.9,47.6,65.3V488c0,4.4,3.6,8,8,8h48c4.4,0,8-3.6,8-8v-24h16v24c0,4.4,3.6,8,8,8h48c4.4,0,8-3.6,8-8v-30.7
	c18.4-8.1,33.2-22.9,41.3-41.3H408c4.4,0,8-3.6,8-8v-48C416,355.6,412.4,352,408,352z M112,376h-8c-4.4,0-8-3.6-8-8s3.6-8,8-8
	s8,3.6,8,8V376z M320,281.4v24.2c-5.2-1.1-10.5-1.6-16-1.6C304,293.6,310.7,284.7,320,281.4z M240,480h-32v-17.6
	c5.2,1.1,10.5,1.6,16,1.6h16V480z M320,480h-32v-16h16c5.5,0,10.8-0.6,16-1.6V480z M304,448h-80c-35.3,0-64-28.7-64-64
	s28.7-64,64-64h80c35.3,0,64,28.7,64,64S339.3,448,304,448z M400,400h-17.6c1.1-5.2,1.6-10.5,1.6-16s-0.6-10.8-1.6-16H400V400z"/>
<path class="st0" d="M312,336c-13.2,0-24,10.8-24,24v8h16v-8c0-4.4,3.6-8,8-8s8,3.6,8,8v8h16v-8C336,346.8,325.2,336,312,336z"/>
<path class="st0" d="M88,328c2,0,4.1-0.8,5.7-2.3l40-40c2.3-2.3,3-5.7,1.7-8.7c-1.2-3-4.2-4.9-7.4-4.9h-16v-64H96v72
	c0,4.4,3.6,8,8,8h4.7L88,308.7L67.3,288H72c4.4,0,8-3.6,8-8v-72H64v64H48c-3.2,0-6.2,2-7.4,4.9c-1.2,3-0.6,6.4,1.7,8.7l40,40
	C83.9,327.2,86,328,88,328z"/>
<path class="st0" d="M448,224h-16v-64h-16v72c0,4.4,3.6,8,8,8h4.7L408,260.7L387.3,240h4.7c4.4,0,8-3.6,8-8v-72h-16v64h-16
	c-3.2,0-6.2,2-7.4,4.9c-1.2,3-0.6,6.4,1.7,8.7l40,40c1.6,1.6,3.6,2.3,5.7,2.3s4.1-0.8,5.7-2.3l40-40c2.3-2.3,3-5.7,1.7-8.7
	C454.2,226,451.2,224,448,224z"/>
<path class="st0" d="M96,48C96,21.5,74.5,0,48,0S0,21.5,0,48s21.5,48,48,48S96,74.5,96,48z M16,48c0-17.6,14.4-32,32-32
	s32,14.4,32,32S65.6,80,48,80S16,65.6,16,48z"/>
<path class="st0" d="M448,0c-26.5,0-48,21.5-48,48s21.5,48,48,48s48-21.5,48-48S474.5,0,448,0z M448,80c-17.6,0-32-14.4-32-32
	s14.4-32,32-32s32,14.4,32,32S465.6,80,448,80z"/>
</svg>
