<?xml version="1.0" encoding="utf-8"?>
<!-- Generator: Adobe Illustrator 23.0.1, SVG Export Plug-In . SVG Version: 6.00 Build 0)  -->
<svg version="1.1" id="Layer_1" xmlns="http://www.w3.org/2000/svg" xmlns:xlink="http://www.w3.org/1999/xlink" x="0px" y="0px"
	 viewBox="0 0 496 496" style="enable-background:new 0 0 496 496;" xml:space="preserve">
<style type="text/css">
	.st0{fill:#AEA1EA;}
</style>
<path class="st0" d="M488,208h-48c-4.4,0-8,3.6-8,8v8H240c-2.1,0-4.2,0.8-5.7,2.3L224,236.7l-10.3-10.3c-1.5-1.5-3.5-2.3-5.7-2.3H64
	v-8c0-4.4-3.6-8-8-8H8c-4.4,0-8,3.6-8,8v192c0,4.4,3.6,8,8,8h48c4.4,0,8-3.6,8-8v-8h64.1c0,0.5-0.1,0.9-0.1,1.4
	c0,16.9,13.7,30.6,30.6,30.6c0.5,0,1-0.1,1.5-0.2c0,0.5-0.1,1-0.1,1.5c0,16.9,13.7,30.6,30.6,30.6c0.5,0,1-0.1,1.5-0.2
	c0,0.5-0.1,1-0.1,1.5c0,16.9,13.7,30.6,30.6,30.6c8.2,0,15.9-3.2,21.7-9l3.7-3.7l3.7,3.7c5.8,5.8,13.5,9,21.7,9
	c16.9,0,30.6-13.7,30.6-30.6c0-0.5-0.1-1-0.2-1.5c0.5,0,1,0.2,1.5,0.2c16.9,0,30.6-13.7,30.6-30.6c0-0.5-0.1-1-0.2-1.5
	c0.5,0,1,0.2,1.5,0.2c16.9,0,30.6-13.7,30.6-30.6c0-0.5-0.1-0.9-0.1-1.4H432v8c0,4.4,3.6,8,8,8h48c4.4,0,8-3.6,8-8V216
	C496,211.6,492.4,208,488,208z M48,400H16V224h32V400z M64,240h140.7l31,31c2.8,2.8,4.3,6.4,4.3,10.3c0,8.1-6.6,14.6-14.6,14.6
	c-3.8,0-7.6-1.6-10.3-4.3l-33.4-33.4l-11.3,11.3l6.3,6.3L105,347.7c-5.8,5.8-9,13.5-9,21.6c0,5.3,1.5,10.3,3.9,14.6H64V240z
	 M233,475.7c-2.7,2.7-6.5,4.3-10.3,4.3c-8.1,0-14.6-6.6-14.6-14.6c0-3.9,1.5-7.6,4.3-10.3l3.7-3.7l20.7,20.7L233,475.7z M288,465.4
	c0,8.1-6.6,14.6-14.6,14.6c-3.8,0-7.6-1.6-10.3-4.3L220.3,433c-2.8-2.8-4.3-6.4-4.3-10.3c0-8.1,6.6-14.6,14.6-14.6
	c3.8,0,7.6,1.6,10.3,4.3l42.8,42.7C286.5,457.8,288,461.5,288,465.4z M320,433.4c0,8.1-6.6,14.6-14.6,14.6c-3.8,0-7.6-1.6-10.3-4.3
	L252.3,401c-2.8-2.8-4.3-6.4-4.3-10.3c0-8.1,6.6-14.6,14.6-14.6c3.8,0,7.6,1.6,10.3,4.3l42.8,42.7C318.5,425.8,320,429.5,320,433.4z
	 M337.4,416c-3.8,0-7.6-1.6-10.3-4.3L284.3,369c-2.8-2.8-4.3-6.4-4.3-10.3c0-8.1,6.6-14.6,14.6-14.6c3.8,0,7.6,1.6,10.3,4.3
	l42.8,42.7c2.8,2.8,4.3,6.4,4.3,10.3C352,409.4,345.4,416,337.4,416z M312,326.6c0-8.1,6.6-14.6,14.6-14.6c3.8,0,7.6,1.6,10.3,4.3
	l42.8,42.7c2.8,2.8,4.3,6.4,4.3,10.3c0,8.1-6.6,14.6-14.6,14.6c-3.8,0-7.6-1.6-10.3-4.3L316.3,337C313.5,334.2,312,330.5,312,326.6z
	 M396.1,384c2.4-4.4,3.9-9.3,3.9-14.6c0-8.2-3.2-15.9-9-21.7L348.3,305c-5.8-5.8-13.5-9-21.7-9c-16.9,0-30.6,13.7-30.6,30.6
	c0,0.5,0.1,1,0.2,1.5c-0.5,0-1-0.2-1.5-0.2c-16.9,0-30.6,13.7-30.6,30.6c0,0.5,0.1,1,0.2,1.5c-0.5,0-1-0.2-1.5-0.2
	c-16.9,0-30.6,13.7-30.6,30.6c0,0.5,0.1,1,0.2,1.5c-0.5,0-1-0.2-1.5-0.2c-16.9,0-30.6,13.7-30.6,30.6c0,6.1,1.8,12,5.1,16.9
	l-4.1,4.1c-2.7,2.7-6.5,4.3-10.3,4.3c-8.1,0-14.6-6.6-14.6-14.6c0-3.9,1.5-7.6,4.3-10.3l17.4-17.4l-11.3-11.3L169,411.7
	c-2.7,2.7-6.5,4.3-10.3,4.3c-8.1,0-14.6-6.6-14.6-14.6c0-3.9,1.5-7.6,4.3-10.3l17.4-17.4l-11.3-11.3L137,379.7
	c-2.7,2.7-6.5,4.3-10.3,4.3c-8.1,0-14.6-6.6-14.6-14.6c0-3.9,1.5-7.6,4.3-10.3l71.7-71.7l15.7,15.7c5.8,5.8,13.5,9,21.7,9
	c16.9,0,30.6-13.7,30.6-30.6c0-8.2-3.2-15.9-9-21.7L235.3,248l8-8H432v144H396.1z M480,400h-32V224h32V400z"/>
<path class="st0" d="M248,160c30.9,0,56-25.1,56-56s-25.1-56-56-56s-56,25.1-56,56S217.1,160,248,160z M248,64c22.1,0,40,17.9,40,40
	s-17.9,40-40,40s-40-17.9-40-40S225.9,64,248,64z"/>
<path class="st0" d="M56,128c10.4,0,19.2-6.7,22.5-16H144v8c0,4.4,3.6,8,8,8h11.3c1.8,6.1,4.3,12.1,7.5,17.9l-8.5,8.5
	c-3.1,3.1-3.1,8.2,0,11.3l24,24c3.1,3.1,8.2,3.1,11.3,0l8.5-8.5c5.8,3.2,11.8,5.7,17.9,7.5V200c0,4.4,3.6,8,8,8h32c4.4,0,8-3.6,8-8
	v-11.3c6.2-1.8,12.2-4.2,18-7.4l8.4,8.4c3.1,3.1,8.2,3.1,11.3,0l21.7-21.7h38.2c3.3,9.3,12.1,16,22.5,16c13.2,0,24-10.8,24-24
	s-10.8-24-24-24c-10.4,0-19.2,6.7-22.5,16h-38.2l-6-6c3.1-5.8,5.6-11.8,7.4-18H344c4.4,0,8-3.6,8-8v-8h65.5c3.3,9.3,12.1,16,22.5,16
	c13.2,0,24-10.8,24-24s-10.8-24-24-24c-10.4,0-19.2,6.7-22.5,16H352v-8c0-4.4-3.6-8-8-8h-11.3c-1.8-6.1-4.3-12.1-7.5-17.9l8.5-8.5
	c3.1-3.1,3.1-8.2,0-11.3l-24-24c-3.1-3.1-8.2-3.1-11.3,0l-8.5,8.5c-5.8-3.2-11.8-5.7-17.9-7.5V8c0-4.4-3.6-8-8-8h-32
	c-4.4,0-8,3.6-8,8v11.3c-6.2,1.8-12.2,4.2-18,7.4l-8.4-8.4c-3.1-3.1-8.2-3.1-11.3,0L164.7,40h-38.2c-3.3-9.3-12.1-16-22.5-16
	c-13.2,0-24,10.8-24,24s10.8,24,24,24c10.4,0,19.2-6.7,22.5-16h38.2l6,6c-3.1,5.8-5.6,11.8-7.4,18H152c-4.4,0-8,3.6-8,8v8H78.5
	C75.2,86.7,66.4,80,56,80c-13.2,0-24,10.8-24,24S42.8,128,56,128z M440,96c4.4,0,8,3.6,8,8s-3.6,8-8,8s-8-3.6-8-8S435.6,96,440,96z
	 M392,152c4.4,0,8,3.6,8,8s-3.6,8-8,8s-8-3.6-8-8S387.6,152,392,152z M104,56c-4.4,0-8-3.6-8-8s3.6-8,8-8s8,3.6,8,8S108.4,56,104,56
	z M160,96h9.6c3.8,0,7.1-2.7,7.8-6.4c1.7-8.6,5.1-16.9,10-24.5c2-3.2,1.6-7.3-1.1-10l-7.1-7.1L192,35.3l7.1,7.1
	c2.7,2.7,6.8,3.1,10,1.1c7.6-4.9,15.8-8.3,24.5-10c3.7-0.8,6.4-4,6.4-7.8V16h16v9.6c0,3.8,2.7,7.1,6.4,7.8
	c8.4,1.7,16.6,5.1,24.4,10.2c3.2,2,7.3,1.6,10-1.1l7.2-7.2L316.7,48l-7.2,7.2c-2.7,2.7-3.1,6.8-1.1,10c5,7.8,8.5,16,10.1,24.4
	c0.8,3.7,4,6.4,7.8,6.4h9.6v16h-9.6c-3.8,0-7.1,2.7-7.8,6.4c-1.7,8.6-5.1,16.9-10,24.5c-2,3.2-1.6,7.3,1.1,10l7.1,7.1L304,172.7
	l-7.1-7.1c-2.7-2.7-6.8-3.1-10-1.1c-7.6,4.9-15.8,8.3-24.5,10c-3.7,0.8-6.4,4-6.4,7.8v9.6h-16v-9.6c0-3.8-2.7-7.1-6.4-7.8
	c-8.4-1.7-16.6-5.1-24.4-10.2c-3.2-2-7.3-1.6-10,1.1l-7.2,7.2L179.3,160l7.2-7.2c2.7-2.7,3.1-6.8,1.1-10c-5-7.8-8.5-16-10.1-24.4
	c-0.8-3.7-4-6.4-7.8-6.4H160V96z M56,96c4.4,0,8,3.6,8,8s-3.6,8-8,8s-8-3.6-8-8S51.6,96,56,96z"/>
</svg>
