<?xml version="1.0" encoding="utf-8"?>
<!-- Generator: Adobe Illustrator 23.0.1, SVG Export Plug-In . SVG Version: 6.00 Build 0)  -->
<svg version="1.1" id="Layer_1" xmlns="http://www.w3.org/2000/svg" xmlns:xlink="http://www.w3.org/1999/xlink" x="0px" y="0px"
	 viewBox="0 0 496 496" style="enable-background:new 0 0 496 496;" xml:space="preserve">
<style type="text/css">
	.st0{fill:#AEA1EA;}
</style>
<path class="st0" d="M488,0H8C3.6,0,0,3.6,0,8v480c0,4.4,3.6,8,8,8h480c4.4,0,8-3.6,8-8V8C496,3.6,492.4,0,488,0z M480,16v80H16V16
	H480z M16,480V112h464v368H16z"/>
<path class="st0" d="M56,80c13.2,0,24-10.8,24-24S69.2,32,56,32S32,42.8,32,56S42.8,80,56,80z M56,48c4.4,0,8,3.6,8,8s-3.6,8-8,8
	s-8-3.6-8-8S51.6,48,56,48z"/>
<path class="st0" d="M120,80c13.2,0,24-10.8,24-24s-10.8-24-24-24S96,42.8,96,56S106.8,80,120,80z M120,48c4.4,0,8,3.6,8,8
	s-3.6,8-8,8s-8-3.6-8-8S115.6,48,120,48z"/>
<path class="st0" d="M184,80c13.2,0,24-10.8,24-24s-10.8-24-24-24s-24,10.8-24,24S170.8,80,184,80z M184,48c4.4,0,8,3.6,8,8
	s-3.6,8-8,8s-8-3.6-8-8S179.6,48,184,48z"/>
<path class="st0" d="M160,232h-16c0,8.8-7.2,16-16,16h-16c-5.9,0-11-3.2-13.8-8H128v-16H96v-16h32v-16H98.2c2.8-4.8,7.9-8,13.8-8h16
	c8.8,0,16,7.2,16,16h16c0-17.6-14.4-32-32-32h-16c-14.9,0-27.3,10.2-30.9,24H64v16h16v16H64v16h17.1c3.6,13.8,16,24,30.9,24h16
	C145.6,264,160,249.6,160,232z"/>
<path class="st0" d="M399.8,291.4c-2.4-78-63.8-141.4-141-146.8l10.9-10.9l-11.3-11.3l-24,24c-3.1,3.1-3.1,8.2,0,11.3l24,24
	l11.3-11.3l-9.7-9.7c66.9,5.8,119.9,60.3,123.7,127.8c-2.5-0.2-5.1-0.4-7.6-0.4c-48.5,0-88,39.5-88,88s39.5,88,88,88s88-39.5,88-88
	C464,335.7,436.8,301.8,399.8,291.4z M304,376c0-37,28.1-67.5,64-71.5v16.7c-13.8,3.6-24,16-24,30.9c0,17.6,14.4,32,32,32
	c8.8,0,16,7.2,16,16s-7.2,16-16,16s-16-7.2-16-16h-16c0,14.9,10.2,27.3,24,30.9v16.7C332.1,443.5,304,413,304,376z M384,447.5v-16.7
	c13.8-3.6,24-16,24-30.9c0-17.6-14.4-32-32-32c-8.8,0-16-7.2-16-16s7.2-16,16-16s16,7.2,16,16h16c0-14.9-10.2-27.3-24-30.9v-16.7
	c35.9,4,64,34.5,64,71.5S419.9,443.5,384,447.5z"/>
<path class="st0" d="M416,368h16v16h-16V368z"/>
<path class="st0" d="M320,368h16v16h-16V368z"/>
<path class="st0" d="M245.7,410.3l-11.3,11.3l10.2,10.2c-70.8-1.8-128.2-57.9-132.1-128.2c2.5,0.2,5.1,0.4,7.6,0.4
	c48.5,0,88-39.5,88-88s-39.5-88-88-88s-88,39.5-88,88c0,40.3,27.2,74.2,64.2,84.6c2.5,80.6,67.8,145.5,148.6,147.2l-10.5,10.5
	l11.3,11.3l24-24c3.1-3.1,3.1-8.2,0-11.3L245.7,410.3z M48,216c0-39.7,32.3-72,72-72s72,32.3,72,72s-32.3,72-72,72S48,255.7,48,216z
	"/>
</svg>
