<?xml version="1.0" encoding="utf-8"?>
<!-- Generator: Adobe Illustrator 23.0.1, SVG Export Plug-In . SVG Version: 6.00 Build 0)  -->
<svg version="1.1" id="Layer_1" xmlns="http://www.w3.org/2000/svg" xmlns:xlink="http://www.w3.org/1999/xlink" x="0px" y="0px"
	 viewBox="0 0 496 496" style="enable-background:new 0 0 496 496;" xml:space="preserve">
<style type="text/css">
	.st0{fill:#AEA1EA;}
</style>
<path class="st0" d="M152,416c-13.2,0-24,10.8-24,24s10.8,24,24,24s24-10.8,24-24S165.2,416,152,416z M152,448c-4.4,0-8-3.6-8-8
	s3.6-8,8-8s8,3.6,8,8S156.4,448,152,448z"/>
<path class="st0" d="M492.1,209.1L416,163.5V88c0-2.8-1.5-5.4-3.9-6.9l-80-48c-2.5-1.5-5.7-1.5-8.2,0L304,45.1V40
	c0-22.1-17.9-40-40-40H40C17.9,0,0,17.9,0,40v416c0,22.1,17.9,40,40,40h224c22.1,0,40-17.9,40-40V319.7l24-14.4l16,9.6v118.2
	c-13.8,3.6-24,16-24,30.9c0,17.6,14.4,32,32,32s32-14.4,32-32c0-14.9-10.2-27.3-24-30.9V324.5l43.9,26.3c1.3,0.8,2.7,1.1,4.1,1.1
	s2.8-0.4,4.1-1.1l80-48c2.4-1.4,3.9-4,3.9-6.9v-80C496,213.2,494.5,210.6,492.1,209.1z M368,464c0,8.8-7.2,16-16,16s-16-7.2-16-16
	s7.2-16,16-16S368,455.2,368,464z M408,254.7L343.6,216l28.4-17.1l36-21.6l64.4,38.7L408,254.7z M400,163.5l-36,21.6l-28,16.8v-61.3
	l64-38.4V163.5z M176,230.1l64,38.4v61.3l-64-38.4V230.1z M248,254.7L183.6,216l64.4-38.7l36,21.6l28.4,17.1L248,254.7z M320,201.9
	l-28-16.8l-36-21.6v-61.3l64,38.4V201.9z M256,73.9l-12.1,7.3c-2.4,1.4-3.9,4-3.9,6.9v32H126.9c-3.6-13.8-16-24-30.9-24
	c-17.6,0-32,14.4-32,32s14.4,32,32,32c14.9,0,27.3-10.2,30.9-24H240v27.5l-76.1,45.7c-2.4,1.4-3.9,4-3.9,6.9v80
	c0,2.8,1.5,5.4,3.9,6.9l80,48c1.3,0.8,2.7,1.1,4.1,1.1s2.8-0.4,4.1-1.1l3.9-2.3V384H48V48h208V73.9z M112,128c0,8.8-7.2,16-16,16
	s-16-7.2-16-16s7.2-16,16-16S112,119.2,112,128z M256,329.9v-61.3l64-38.4v61.3L256,329.9z M328,49.3L392.4,88L328,126.7L263.6,88
	L328,49.3z M288,456c0,13.2-10.8,24-24,24H40c-13.2,0-24-10.8-24-24V40c0-13.2,10.8-24,24-24h224c13.2,0,24,10.8,24,24v14.7l-16,9.6
	V40c0-4.4-3.6-8-8-8H40c-4.4,0-8,3.6-8,8v352c0,4.4,3.6,8,8,8h224c4.4,0,8-3.6,8-8v-53.1l16-9.6V456z M336,230.1l64,38.4v61.3
	l-64-38.4V230.1z M416,329.9v-61.3l64-38.4v61.3L416,329.9z"/>
</svg>
