<?xml version="1.0" encoding="utf-8"?>
<!-- Generator: Adobe Illustrator 23.0.1, SVG Export Plug-In . SVG Version: 6.00 Build 0)  -->
<svg version="1.1" id="Layer_1" xmlns="http://www.w3.org/2000/svg" xmlns:xlink="http://www.w3.org/1999/xlink" x="0px" y="0px"
	 viewBox="0 0 496 496" style="enable-background:new 0 0 496 496;" xml:space="preserve">
<style type="text/css">
	.st0{fill:#AEA1EA;}
</style>
<path class="st0" d="M312,0c-98.8,0-179.6,78.3-183.8,176.1c-17,0-32.7,6.3-44.8,18C70.9,206.2,64,222.5,64,240v16.6
	c0,27.3,5.6,53.7,16.7,78.6C90.8,358.1,96,382.4,96,407.4v8.6H56c-19.3,0-35.5,13.8-39.2,32H8c-4.4,0-8,3.6-8,8v32c0,4.4,3.6,8,8,8
	h240c4.4,0,8-3.6,8-8v-32c0-4.4-3.6-8-8-8h-8.8c-3.7-18.2-19.9-32-39.2-32h-40v-8.6c0-25,5.2-49.3,15.3-72.2
	c2.9-6.6,5.5-13.4,7.6-20.2c34.3,33.8,80.5,52.9,129,52.9c101.5,0,184-82.5,184-184S413.5,0,312,0z M240,480H16v-16h224V480z
	 M222.5,448H33.5c3.3-9.3,12.1-16,22.5-16h144C210.4,432,219.2,438.7,222.5,448z M112,416v-8.6c0-2.5-0.1-4.9-0.2-7.4h32.4
	c-0.1,2.5-0.2,4.9-0.2,7.4v8.6H112z M145.5,384h-34.9c-2.3-19-7.4-37.5-15.2-55.2C85.2,305.9,80,281.6,80,256.6V240
	c0-13.1,5.2-25.3,14.6-34.4c9.4-9.1,21.9-13.9,34.9-13.5c25.7,0.8,46.5,23.3,46.5,50.3v14.3c0,25-5.2,49.3-15.3,72.2
	C152.8,346.5,147.8,365,145.5,384z M210.5,93.8l7.9,7.9l11.3-11.3l-7.9-7.9C244,62.8,272.5,50.2,304,48.4V64h16V48.4
	c31.5,1.8,60,14.4,82.2,34.1l-7.9,7.9l11.3,11.3l7.9-7.9c19.7,22.2,32.2,50.7,34.1,82.2H432v16h15.6c-1.8,31.5-14.4,60-34.1,82.2
	l-7.9-7.9l-11.3,11.3l7.9,7.9c-22.2,19.7-50.7,32.2-82.2,34.1V304h-16v15.7c-31-1.8-59.8-14-82.3-34.1l8-8l-11.3-11.3l-8,8
	c-7-7.9-13.2-16.7-18.4-26.4v-5.6c0-16-5.7-30.8-15-42.4c-0.3-2.6-0.6-5.3-0.7-8H192v-16h-15.6C178.2,144.5,190.8,116,210.5,93.8z
	 M312,352c-47.4,0-92.4-20-124.2-55c1.5-6.9,2.6-14,3.3-21c28.5,37.5,72.8,60,121,60c83.8,0,152-68.2,152-152S395.8,32,312,32
	s-152,68.2-152,152c0,0.4,0,0.7,0,1.1c-4.9-3-10.2-5.2-15.7-6.8C147.4,88.3,221.3,16,312,16c92.6,0,168,75.4,168,168
	S404.6,352,312,352z"/>
<path class="st0" d="M312,224c-8.8,0-16-7.2-16-16h-16c0,14.9,10.2,27.3,24,30.9V272h16v-33.1c13.8-3.6,24-16,24-30.9
	c0-17.6-14.4-32-32-32c-8.8,0-16-7.2-16-16s7.2-16,16-16s16,7.2,16,16h16c0-14.9-10.2-27.3-24-30.9V80h-16v49.1
	c-13.8,3.6-24,16-24,30.9c0,17.6,14.4,32,32,32c8.8,0,16,7.2,16,16S320.8,224,312,224z"/>
</svg>
