<?xml version="1.0" encoding="utf-8"?>
<!-- Generator: Adobe Illustrator 23.0.1, SVG Export Plug-In . SVG Version: 6.00 Build 0)  -->
<svg version="1.1" id="Layer_1" xmlns="http://www.w3.org/2000/svg" xmlns:xlink="http://www.w3.org/1999/xlink" x="0px" y="0px"
	 viewBox="0 0 496 496" style="enable-background:new 0 0 496 496;" xml:space="preserve">
<style type="text/css">
	.st0{fill:#AEA1EA;}
</style>
<path class="st0" d="M136,212h16v-17.1c13.8-3.6,24-16,24-30.9c0-9.6-4.3-18.1-11.1-24c6.7-5.9,11.1-14.4,11.1-24
	c0-14.9-10.2-27.3-24-30.9V68h-16v16h-8V68h-16v16h-8c-4.4,0-8,3.6-8,8v96c0,4.4,3.6,8,8,8h8v16h16v-16h8V212z M160,164
	c0,8.8-7.2,16-16,16h-32v-32h32C152.8,148,160,155.2,160,164z M112,100h32c8.8,0,16,7.2,16,16s-7.2,16-16,16h-32V100z"/>
<path class="st0" d="M136,52V36C78.7,36,32,82.7,32,140h16C48,91.5,87.5,52,136,52z"/>
<path class="st0" d="M224,140c0,48.5-39.5,88-88,88v16c57.3,0,104-46.7,104-104H224z"/>
<path class="st0" d="M64,132h16v16H64V132z"/>
<path class="st0" d="M192,132h16v16h-16V132z"/>
<path class="st0" d="M313.5,234.2l17.6-41c4,1.8,8.3,2.8,13,2.8c17.6,0,32-14.4,32-32c0-5-1.2-9.6-3.3-13.8l73.1-39.9
	c5.2,3.6,11.4,5.7,18.2,5.7c17.6,0,32-14.4,32-32s-14.4-32-32-32s-32,14.4-32,32c0,5,1.2,9.6,3.3,13.8l-73.1,39.9
	c-5.2-3.6-11.4-5.7-18.2-5.7c-17.6,0-32,14.4-32,32c0,7,2.3,13.4,6.1,18.7L301.3,222l-7.6-7.6c-3.1-3.1-8.2-3.1-11.3,0L272,224.7
	l-17.8-17.8c11.2-19.8,17.8-42.6,17.8-66.9C272,65,211,4,136,4S0,65,0,140s61,136,136,136c28.5,0,54.9-8.8,76.8-23.9l15.9,15.9
	l-10.3,10.3c-1.5,1.5-2.3,3.5-2.3,5.7s0.8,4.2,2.3,5.7l35.7,35.7l-26.8,47c-1.1-0.1-2.1-0.3-3.2-0.3c-8.4,0-16.2,2.6-22.7,7.1
	l-44.4-31.7c2-4.7,3.1-9.9,3.1-15.4c0-22.1-17.9-40-40-40s-40,17.9-40,40c0,11,4.4,20.9,11.6,28.1L55.1,415c-4.7-1.9-9.7-3-15.1-3
	c-22.1,0-40,17.9-40,40s17.9,40,40,40s40-17.9,40-40c0-11-4.4-20.9-11.6-28.1l36.6-54.8c4.7,1.9,9.7,3,15.1,3
	c10.8,0,20.7-4.4,27.9-11.4l42.3,30.2c-3.9,6.2-6.2,13.4-6.2,21.2c0,22.1,17.9,40,40,40s40-17.9,40-40c0-15.2-8.6-28.2-21.1-35
	l22.8-39.9l139.3,139.3c10,10.1,23.4,15.6,37.7,15.6c29.4,0,53.3-23.9,53.3-53.3c0-14.2-5.5-27.6-15.6-37.7L313.5,234.2z M464,68
	c8.8,0,16,7.2,16,16s-7.2,16-16,16s-16-7.2-16-16S455.2,68,464,68z M344,148c8.8,0,16,7.2,16,16s-7.2,16-16,16s-16-7.2-16-16
	S335.2,148,344,148z M40,476c-13.2,0-24-10.8-24-24s10.8-24,24-24s24,10.8,24,24S53.2,476,40,476z M120,356c-13.2,0-24-10.8-24-24
	s10.8-24,24-24s24,10.8,24,24S133.2,356,120,356z M224,436c-13.2,0-24-10.8-24-24s10.8-24,24-24s24,10.8,24,24S237.2,436,224,436z
	 M16,140C16,73.8,69.8,20,136,20s120,53.8,120,120s-53.8,120-120,120S16,206.2,16,140z M225.5,242.2c7.4-6.5,14-13.7,19.8-21.6
	l15.4,15.4L240,256.7L225.5,242.2z M245.7,273.7l42.3-42.3l16.7,16.7L252,300.7L235.3,284L245.7,273.7z M442.7,476
	c-10,0-19.3-3.9-26.3-10.9L263.3,312l52.7-52.7l153.1,153.1c7,7,10.9,16.4,10.9,26.3C480,459.3,463.3,476,442.7,476z"/>
</svg>
